<?xml version="1.0" encoding="utf-8"?>
<!-- Generator: Adobe Illustrator 16.0.4, SVG Export Plug-In . SVG Version: 6.00 Build 0)  -->
<!DOCTYPE svg PUBLIC "-//W3C//DTD SVG 1.1//EN" "http://www.w3.org/Graphics/SVG/1.1/DTD/svg11.dtd">
<svg version="1.1" id="Layer_1" xmlns="http://www.w3.org/2000/svg" xmlns:xlink="http://www.w3.org/1999/xlink" x="0px" y="0px"
	 width="1000px" height="350px" viewBox="0 0 1000 350" enable-background="new 0 0 1000 350" xml:space="preserve">
<rect x="196" y="176" fill="#DAF4FD" width="698" height="40"/>
<rect x="95" y="142" fill="#D6CFF3" width="98" height="75"/>
<rect x="93.5" y="111.5" fill="none" stroke="#4D4D4D" stroke-width="3" stroke-miterlimit="10" width="100" height="105"/>
<rect x="194.5" y="111.5" fill="none" stroke="#4D4D4D" stroke-width="3" stroke-miterlimit="10" width="100" height="105"/>
<rect x="294.5" y="111.5" fill="none" stroke="#4D4D4D" stroke-width="3" stroke-miterlimit="10" width="100" height="105"/>
<rect x="394.5" y="111.5" fill="none" stroke="#4D4D4D" stroke-width="3" stroke-miterlimit="10" width="100" height="105"/>
<rect x="494.5" y="111.5" fill="none" stroke="#4D4D4D" stroke-width="3" stroke-miterlimit="10" width="100" height="105"/>
<rect x="595.5" y="111.5" fill="none" stroke="#4D4D4D" stroke-width="3" stroke-miterlimit="10" width="100" height="105"/>
<rect x="695.5" y="111.5" fill="none" stroke="#4D4D4D" stroke-width="3" stroke-miterlimit="10" width="100" height="105"/>
<rect x="795.5" y="111.5" fill="none" stroke="#4D4D4D" stroke-width="3" stroke-miterlimit="10" width="100" height="105"/>
<text transform="matrix(1 0 0 1 134.0659 264.5547)" font-family="'Neutraface2Display-Bold'" font-size="48">1</text>
<text transform="matrix(1 0 0 1 231.0352 264.5547)" font-family="'Neutraface2Display-Bold'" font-size="48">2</text>
<text transform="matrix(1 0 0 1 330.9805 264.5547)" font-family="'Neutraface2Display-Bold'" font-size="48">3</text>
<text transform="matrix(1 0 0 1 431.0215 264.5547)" font-family="'Neutraface2Display-Bold'" font-size="48">4</text>
<text transform="matrix(1 0 0 1 532.4551 264.5547)" font-family="'Neutraface2Display-Bold'" font-size="48">5</text>
<text transform="matrix(1 0 0 1 632.7598 264.5547)" font-family="'Neutraface2Display-Bold'" font-size="48">6</text>
<text transform="matrix(1 0 0 1 733.377 264.5547)" font-family="'Neutraface2Display-Bold'" font-size="48">7</text>
<text transform="matrix(1 0 0 1 834.0664 265.5547)" font-family="'Neutraface2Display-Bold'" font-size="48">8</text>
<line fill="none" stroke="#000000" stroke-width="3" stroke-miterlimit="10" x1="192" y1="175.5" x2="920" y2="175.5"/>
<line fill="none" stroke="#000000" stroke-width="3" stroke-miterlimit="10" x1="62" y1="141.5" x2="193" y2="141.5"/>
<rect x="81" y="92" fill="#FFFFFF" width="825" height="29"/>
<text transform="matrix(1 0 0 1 158 89)" font-family="'Courier'" font-size="18">Vtransfer</text>
<text transform="matrix(1 0 0 1 5 135.001)" font-family="'Courier'" font-size="18">Vinitial</text>
<text transform="matrix(1 0 0 1 901 168)" font-family="'Courier'" font-size="18">Vbuffer</text>
<text transform="matrix(1 0 0 1 453 328)" font-family="'Courier'" font-size="18">ndilutions</text>
<text transform="matrix(1 0 0 1 101 209)" font-family="'Courier'" font-size="21">C0</text>
<text transform="matrix(0 1 -1 0 480.0649 266.5537)" font-family="'Symbol'" font-size="72">⎬</text>
<text transform="matrix(0 1 -1 0 114.064 266.5537)" font-family="'Symbol'" font-size="72">⎭</text>
<text transform="matrix(0 1 -1 0 841.0645 266.5537)" font-family="'Symbol'" font-size="72">⎫</text>
<text transform="matrix(0 1 -1 0 187.064 266.5537)" font-family="'Symbol'" font-size="72">⎪</text>
<text transform="matrix(0 1 -1 0 260.063 266.5537)" font-family="'Symbol'" font-size="72">⎪</text>
<text transform="matrix(0 1 -1 0 333.564 266.5537)" font-family="'Symbol'" font-size="72">⎪</text>
<text transform="matrix(0 1 -1 0 406.563 266.5537)" font-family="'Symbol'" font-size="72">⎪</text>
<text transform="matrix(0 1 -1 0 553.5645 266.5537)" font-family="'Symbol'" font-size="72">⎪</text>
<text transform="matrix(0 1 -1 0 626.5645 266.5537)" font-family="'Symbol'" font-size="72">⎪</text>
<text transform="matrix(0 1 -1 0 700.0645 266.5537)" font-family="'Symbol'" font-size="72">⎪</text>
<text transform="matrix(0 1 -1 0 773.0645 266.5537)" font-family="'Symbol'" font-size="72">⎪</text>
<g>
	<g>
		<path fill="none" stroke="#333333" stroke-width="2" stroke-miterlimit="10" d="M215.471,116.804
			c-2.884-6.3-7.934-13.716-16.277-16.266c-15.488-4.734-27.573,12.6-27.573,12.6"/>
		<g>
			<polygon fill="#333333" points="203.347,119.317 226.283,111.301 218.822,126.774 			"/>
		</g>
	</g>
</g>
<g>
	<g>
		<path fill="none" stroke="#333333" stroke-width="2" stroke-miterlimit="10" d="M315.138,116.804
			c-2.884-6.3-7.934-13.716-16.277-16.266c-15.488-4.734-27.573,12.6-27.573,12.6"/>
		<g>
			<polygon fill="#333333" points="303.013,119.317 325.95,111.301 318.489,126.774 			"/>
		</g>
	</g>
</g>
<g>
	<g>
		<path fill="none" stroke="#333333" stroke-width="2" stroke-miterlimit="10" d="M414.805,116.804
			c-2.884-6.3-7.934-13.716-16.277-16.266c-15.488-4.734-27.573,12.6-27.573,12.6"/>
		<g>
			<polygon fill="#333333" points="402.68,119.317 425.617,111.301 418.156,126.774 			"/>
		</g>
	</g>
</g>
<g>
	<g>
		<path fill="none" stroke="#333333" stroke-width="2" stroke-miterlimit="10" d="M514.472,116.804
			c-2.885-6.3-7.935-13.716-16.277-16.266c-15.488-4.734-27.573,12.6-27.573,12.6"/>
		<g>
			<polygon fill="#333333" points="502.347,119.317 525.283,111.301 517.822,126.774 			"/>
		</g>
	</g>
</g>
<g>
	<g>
		<path fill="none" stroke="#333333" stroke-width="2" stroke-miterlimit="10" d="M614.139,116.804
			c-2.885-6.3-7.935-13.716-16.277-16.266c-15.488-4.734-27.573,12.6-27.573,12.6"/>
		<g>
			<polygon fill="#333333" points="602.014,119.317 624.95,111.301 617.489,126.774 			"/>
		</g>
	</g>
</g>
<g>
	<g>
		<path fill="none" stroke="#333333" stroke-width="2" stroke-miterlimit="10" d="M713.805,116.804
			c-2.885-6.3-7.935-13.716-16.277-16.266c-15.488-4.734-27.573,12.6-27.573,12.6"/>
		<g>
			<polygon fill="#333333" points="701.68,119.317 724.616,111.301 717.155,126.774 			"/>
		</g>
	</g>
</g>
<g>
	<g>
		<path fill="none" stroke="#333333" stroke-width="2" stroke-miterlimit="10" d="M813.472,116.804
			c-2.885-6.3-7.935-13.716-16.277-16.266c-15.488-4.734-27.573,12.6-27.573,12.6"/>
		<g>
			<polygon fill="#333333" points="801.347,119.317 824.283,111.301 816.822,126.774 			"/>
		</g>
	</g>
</g>
<g>
	<g>
		<path fill="none" stroke="#333333" stroke-width="2" stroke-miterlimit="10" d="M928.962,110.622
			c-5.325-2.567-13.795-6.024-27.226-10.401c-33.282-10.847-33.031,26.038-33.031,26.038"/>
		<g>
			<polygon fill="#333333" points="921.111,120.189 933.917,99.541 937.836,116.267 			"/>
		</g>
	</g>
</g>
<text transform="matrix(1 0 0 1 936.0664 129.5542)" font-family="'Neutraface2Display-Bold'" font-size="24">waste</text>
</svg>
